<?xml version="1.0" encoding="utf-8"?>
<!-- Generator: Adobe Illustrator 18.0.0, SVG Export Plug-In . SVG Version: 6.00 Build 0)  -->
<!DOCTYPE svg PUBLIC "-//W3C//DTD SVG 1.1//EN" "http://www.w3.org/Graphics/SVG/1.1/DTD/svg11.dtd">
<svg version="1.1" id="logo" xmlns:svg="http://www.w3.org/2000/svg"
	 xmlns="http://www.w3.org/2000/svg" xmlns:xlink="http://www.w3.org/1999/xlink" x="0px" y="0px" viewBox="0 0 650 200"
	 style="enable-background:new 0 0 650 200;" xml:space="preserve">
<style type="text/css">
	.st0{fill:#231F20;}
</style>
<path id="gandi" class="st0" d="M203.3,106.4c-9,0-10.7-6.5-10.7-16.9c0-12.7,4.9-17.6,11.1-17.6c6.9,0,10.6,4.5,10.6,15
	C214.2,99.5,210.9,106.4,203.3,106.4z M197.5,134.6c0.9,0.1,1.7,0.3,2.7,0.3c12.7,0.9,16.5,2.7,16.5,9.3c0,5.1-4.5,11.1-14.7,11.1
	c-9.8,0-12.1-3.6-12.1-8.2C189.8,142.4,193.3,137.7,197.5,134.6L197.5,134.6z M211.3,64.4c-2.5-0.7-5.3-1.2-7.2-1.2
	c-14.2,0-24,7.9-24,27.2c0,9.3,2.2,17.2,8.8,21.5c-4.2,3.5-9,9.4-9.1,13.2c-0.1,3.8,3.2,6.4,8.7,8c-6.1,4-10.8,9.8-10.8,16.8
	c0,7.5,3.8,16.5,23.3,16.5c19.2,0,27.6-11.3,27.6-23.7c0-11.4-8.7-15.6-17.9-16.9c-10.8-1.4-18.2-1.9-18.2-4.3c0-2,1.9-4.5,3.8-6.5
	c1.9,0.4,4,0.6,6.5,0.6c16.8,0,23.4-10,23.4-25.3c0-7.2-2.2-12.7-5.6-16.3c2,0.4,3.8,0.7,5.3,0.7c2.5,0,4-1.4,4-4.6
	c0-2.6-0.6-4.5-1.2-5.5L211.3,64.4L211.3,64.4z M125.7,51c-5.1-3.6-12.2-2.4-15.8,2.7c-4.4,6.3-9.4,11-15,14.2
	c-0.5,0.3-1,0.6-1.6,0.9c-0.5,0.3-1,0.5-1.5,0.7c-5.2,2.4-11.1,3.7-17.8,3.9c-6.7-0.2-12.6-1.5-17.8-3.9c-6.9-3.2-12.8-8.3-18-15.8
	c-3.6-5.1-10.7-6.3-15.8-2.7c-5.1,3.6-6.3,10.7-2.7,15.8c7.5,10.6,16.6,18.4,27,23.2c2.1,1,4.1,1.8,6.3,2.5
	C44.1,99,34.5,108,29.9,120.3c-4.8,12.8-4.7,26.6,0.2,39c4.7,11.8,13.3,21.5,24.4,27.1c12.3,6.3,28,6.3,41.9,0
	c14.6-6.6,24.2-18.6,25.5-32.2c1.4-14.3-5.4-27.1-17.5-32.5c-12.5-5.6-26.6-1.6-35.9,10.2c-3.9,4.9-3,12.1,1.9,16
	c4.9,3.9,12.1,3,16-1.9c2.8-3.5,6-4.8,8.7-3.5c2.4,1.1,4.7,4.1,4.2,9.5c-0.5,5.3-5.2,10.6-12.2,13.8c-7.6,3.4-16.1,3.6-22.2,0.5
	c-6.1-3.1-11-8.5-13.6-15.2c-2-5-3.6-13,0-22.7c2.7-7.2,9.5-14,21.4-21.4c5-3.1,10.5-6.1,15.7-8.9c6-3.3,11.7-6.4,16.8-9.7
	c8.9-4.9,16.8-12.1,23.4-21.4C132,61.7,130.8,54.7,125.7,51L125.7,51z M270,127.7c-1.3,1.4-4.9,2.3-7.8,2.3c-5.6,0-9.3-0.6-9.3-13
	c0-12.7,4.9-14.7,10.7-14.7c2,0,4.9,0.3,6.8,1.3C270.4,114,270,127.7,270,127.7L270,127.7z M267.4,63.2c-13.4,0-23.1,1.9-25.3,3.5
	c-1,0.7-1.3,2.2-1.3,3.8c0,1,0.1,5.1,1.6,7.5c4.5-2,13.9-3.3,20.4-3.3c4.5,0,7.7,1.7,7.7,8.5v12.1c-2.9-1.4-7.4-1.9-11-1.9
	c-9.3,0-18.8,3.6-18.8,23.7c0,22,10.1,22.8,20.7,22.7c9.4,0,16.2-2.3,20.1-4.8c0,0,0.9-20.5,0.9-45.8v-8.4
	C282.3,67.8,276.8,63.2,267.4,63.2z M67.9,29.7c1.5-1.5,3.4-2.3,5.4-2.3c2.1,0,4,0.8,5.4,2.3c1.5,1.5,2.3,3.4,2.3,5.4
	c0,2.1-0.8,4-2.3,5.4c-1.5,1.5-3.4,2.3-5.4,2.3c-2.1,0-4-0.8-5.4-2.3c-1.5-1.5-2.3-3.4-2.3-5.4C65.7,33,66.5,31.1,67.9,29.7z
	 M73.4,61.3c7,0,13.6-2.7,18.5-7.7c5-4.9,7.7-11.5,7.7-18.5c0-7-2.7-13.6-7.7-18.5c-4.9-4.9-11.5-7.7-18.5-7.7
	c-7,0-13.6,2.7-18.5,7.7c-5,4.9-7.7,11.5-7.7,18.5s2.7,13.6,7.7,18.5C59.8,58.6,66.4,61.3,73.4,61.3z M458.1,122.3
	c-5.2,0-8.1,3.9-8.1,8.4c0,5.1,2,8.2,8.1,8.2c5.1,0,8.1-3.8,8.1-8.2C466.2,125.7,464,122.3,458.1,122.3z M506.6,63.2
	c-7.8,0-18.2,2.2-23.9,4.8v69.7c12,0,11.7,0,11.7-2.5v-59c3.2-2,7.7-2.7,10.8-2.7c7.7,0,8.5,4.3,8.5,15.8v48.4
	c12.3,0,12.1,0,12.1-2.5V89.8C526,69.9,524.1,63.2,506.6,63.2L506.6,63.2z M427.3,31.8c-4.6,0-6.7,3.5-6.7,8.7
	c-0.1,6.8,2.2,9,5.9,9.1c4.3,0,6.5-3.5,6.7-9.4C433.3,34.2,431.8,31.8,427.3,31.8z M342.5,89.8c0-20-1.9-26.6-19.4-26.6
	c-7.8,0-18.2,2.2-23.9,4.8v69.7c12,0,11.7,0,11.7-2.5v-59c3.2-2,7.7-2.7,10.8-2.7c7.7,0,8.5,4.3,8.5,15.8v48.4
	c12.3,0,12.1,0,12.1-2.5V89.8z M572.9,97.2c-5.1,1.4-14,1.7-19.7,1.6c0.9-20.1,6.2-25.3,12.1-25.3c6.2,0,8.1,4.3,8.2,14.7
	C573.7,91,573.5,94.6,572.9,97.2L572.9,97.2z M585.1,86.9c0-15.5-6.2-23.7-18.4-23.7c-12.9,0-25.6,4.5-25.6,42.1
	c0,29.5,9.7,34.5,23.1,34.5c10.8,0,19.9-3.5,19.9-5.5c0-3.2-0.3-8.2-1-10.4c-4.9,2.7-10.7,4.5-17.6,4.5c-7.8,0-11.9-2.6-12.3-20.1
	c6.9,0,20.2-0.3,30.2-2.3C584.7,100.8,585.1,93.4,585.1,86.9L585.1,86.9z M390.4,127.1c-2.3,1.6-5.4,2.2-8.5,2.2
	c-6.8,0-10.8-3.2-10.8-26.5c0-23.7,6.4-29.3,12.7-29.3c3,0,4.8,0.4,6.7,1.9L390.4,127.1L390.4,127.1z M390.4,36.8v29.3
	c-2.5-1.7-5.8-2.9-10.3-2.9c-12.4,0-22.3,12.3-22.3,40.9c0,31.4,9.8,35.7,23.6,35.7c9,0,15.8-1.4,20.7-4.3V31.4
	C392.5,31.4,390.4,31.4,390.4,36.8L390.4,36.8z M420.8,70.7v66.9c11.9,0,12,0,12-2.5V65.4C423.3,65.4,420.8,65.4,420.8,70.7z
	 M622.9,129.9c-5.2,0-5.2-5.2-5.2-11.4V75.5h12.4c2.3,0,2.3-1,2.3-10.1h-14.7v-26c-9.5,0-11.7,0-11.7,4v22h-7.4
	c-2.5,0-2.6,1.2-2.6,10.1h10v41.6c0,13,0,22.8,13.7,22.8c5.6,0,12.4-1.2,12.4-4.6c0-2.9-0.4-6.1-0.9-7.7
	C628.3,129,627,129.9,622.9,129.9"/>
</svg>
