<?xml version="1.0" encoding="utf-8"?>
<!-- Generator: Adobe Illustrator 18.0.0, SVG Export Plug-In . SVG Version: 6.00 Build 0)  -->
<!DOCTYPE svg PUBLIC "-//W3C//DTD SVG 1.1//EN" "http://www.w3.org/Graphics/SVG/1.1/DTD/svg11.dtd">
<svg version="1.1" id="Layer_1" xmlns="http://www.w3.org/2000/svg" xmlns:xlink="http://www.w3.org/1999/xlink" x="0px" y="0px"
	 viewBox="0 0 855 183" style="enable-background:new 0 0 855 183;" xml:space="preserve">
<style type="text/css">
	.st0{fill:#3C98FF;}
	.st1{fill:#1B5CED;}
	.st2{fill:#009B4A;}
	.st3{fill:#EA3200;}
	.st4{fill:#EAAD00;}
</style>
<g>
	<g>
		<g>
			<path d="M232.3,148.9V49.6c0-10.5-2.1-16.5-2.1-16.5l12.6-2.4c0,0,2.1,6.8,2.1,19.1v99.1H232.3z M282.5,148.9l-37-45.6l30.7-34.9
				H292l-31.7,34.9l39,45.6H282.5z"/>
			<path d="M326.2,150.5c-3.9,0-7.1-1.1-9.5-3.4c-2.6-2.2-3.9-5.7-3.9-11.5V50.3c0-10.5-1.9-16.5-1.9-16.5l12.6-2.4
				c0,0,2.1,6.8,2.1,19.1v82.3c0,6.3,1,8.1,4.5,8.1c0.5,0,1.6-0.3,1.6-0.3l2.6,8.2C331,150.2,329.6,150.5,326.2,150.5z"/>
			<path d="M381,151c-22.1,0-34.8-16.3-34.8-42.8c0-26.2,13.1-42.2,34.3-42.2c13.4,0,22.1,6.1,27.6,14.1c5,7.3,7.4,16.8,7.4,29.9
				C415.6,136.7,401.2,151,381,151z M397.5,86.6c-3.4-7.1-10.5-10.3-17.1-10.3c-7.1,0-13.7,3.4-16.5,8.7c-2.6,5-3.9,11.5-3.9,21
				c0,11.3,1.9,21.3,5,26.3c2.9,4.8,9.4,8.1,16.3,8.1c8.4,0,14.7-4.4,17.5-12.1c1.8-5,2.4-9.5,2.4-17.4
				C401.2,99.6,400.1,92,397.5,86.6z"/>
			<path d="M493.4,152.3c-5.3-4.4-7.6-7.6-8.7-12.9c-6.1,8.2-14.6,12.3-25.6,12.3c-10.2,0-17.8-4.4-21.2-11.5
				c-1.5-3.1-2.1-7.3-2.1-12V69l12.4-2.4v57.9c0,7.6,1.1,11,4.8,13.6c2.6,1.8,6.3,2.8,9.9,2.8c7.9,0,16.2-5.8,20.5-14.5V69.2
				l12.5-2.1v58.7c0,10.2,1.4,14.2,5.5,17.9L493.4,152.3z"/>
			<path d="M572.7,148.9c0,0-1.6-4-1.8-8.2c-5.8,6.6-12,9.4-21.3,9.4c-20.9,0-32.8-15-32.8-40.7c0-17.1,5.7-29.7,16.6-37.3
				c5.2-3.6,9.7-5,15.5-5c9.1,0,17,3.7,21.8,10.2c0,0-0.2-6.6-0.2-12.4V30.9l12.6,2.1v89.9c0,13.9,0.6,21.3,2.4,26H572.7z
				 M570.5,85.7c-4-5.7-10-8.4-19.6-8.4c-6.3,0-11.6,2.9-15,8.4c-3.9,6.1-5.2,12-5.2,23.3c0,9.4,0.6,16.3,3.2,21
				c3.7,6.6,8.7,9.4,16.2,9.4c6.6,0,10.4-1.4,15.5-5.2c3.4-2.4,4.8-5.8,4.8-5.8V85.7z"/>
			<path d="M622,150.5c-3.9,0-7.1-1.1-9.5-3.4c-2.6-2.2-3.9-5.7-3.9-11.5V50.3c0-10.5-1.9-16.5-1.9-16.5l12.6-2.4
				c0,0,2.1,6.8,2.1,19.1v82.3c0,6.3,0.9,8.1,4.5,8.1c0.5,0,1.6-0.3,1.6-0.3l2.6,8.2C626.8,150.2,625.4,150.5,622,150.5z"/>
			<path d="M657,110.7v1.9c0,7.6,1,13.4,3.7,17.6c4.5,6.9,12,9.9,20,9.9c7.8,0,14.1-2.4,19.7-7.6l4.8,8.1c-7.1,6.4-16.8,10-27.1,10
				c-22.3,0-35.7-16.1-35.7-42.8c0-13.6,2.9-22.3,9.7-30.4c6.5-7.6,14.4-11.2,24.1-11.2c8.7,0,16.3,3.1,21.8,8.7
				c6.9,7.1,9.2,14.7,9.2,33.9v1.8H657z M690.1,83.2c-2.8-4.4-8.4-7.1-14.6-7.1c-11.5,0-17.9,8.4-18.6,25h36.9
				C693.7,92.5,692.5,87.1,690.1,83.2z"/>
			<path d="M751.3,151.3c-10.2,0-21.3-3.1-29.6-8.1l4.9-9.4c8.2,5,16.6,7.6,25.5,7.6c9.9,0,16.3-5.3,16.3-13.9
				c0-7.3-4-11.3-13.3-13.3l-10-2.1c-13.3-2.7-20.4-11-20.4-22.1c0-14.6,11.8-24.7,28.6-24.7c8.4,0,17.8,2.6,24.6,6.5l-4.7,9.4
				c-7.1-3.4-13.1-5.8-20.2-5.8c-9.2,0-15.2,5.3-15.2,13.2c0,6.2,3.1,9.9,11.6,11.7l10.7,2.3c14.5,3.1,21.5,10.5,21.5,22.5
				C781.7,140.6,769.4,151.3,751.3,151.3z"/>
			<path d="M824.6,151.3c-10.2,0-21.3-3.1-29.6-8.1l4.8-9.4c8.2,5,16.6,7.6,25.5,7.6c9.9,0,16.3-5.3,16.3-13.9
				c0-7.3-4-11.3-13.3-13.3l-10-2.1c-13.3-2.7-20.4-11-20.4-22.1c0-14.6,11.8-24.7,28.6-24.7c8.4,0,17.8,2.6,24.6,6.5l-4.7,9.4
				c-7.1-3.4-13.1-5.8-20.2-5.8c-9.2,0-15.2,5.3-15.2,13.2c0,6.2,3.1,9.9,11.6,11.7l10.7,2.3c14.6,3.1,21.5,10.5,21.5,22.5
				C855,140.6,842.7,151.3,824.6,151.3z"/>
		</g>
	</g>
	<g>
		<g>
			<g>
				<path class="st0" d="M54.7,54.7L25.9,25.9c-0.6,0.6-0.8,1.6-0.5,2.8l7.4,28.8c0.6,2.5-0.8,5.3-3.2,6.2L2,74.7
					c-1.2,0.5-1.9,1.2-2,2.1l40.3,6.4C42,72.1,47.2,62.3,54.7,54.7z"/>
				<path class="st1" d="M39.6,91.2c0-2.7,0.2-5.4,0.6-8.1L0,76.7c-0.1,0.8,0.3,1.8,1.3,2.6l22.9,18.9c2,1.6,2.5,4.7,1.1,6.9
					l-16,25.1c-0.7,1.1-0.8,2.1-0.4,2.8l36.3-18.5C41.7,107.5,39.6,99.6,39.6,91.2z"/>
				<path class="st2" d="M83.1,40.3L76.7,0c-0.8,0.1-1.6,0.8-2.1,2L63.7,29.7c-0.9,2.4-3.7,3.8-6.2,3.2l-28.8-7.4
					c-1.2-0.3-2.2-0.1-2.8,0.5l28.8,28.8C62.2,47.2,72.1,42,83.1,40.3z"/>
				<path class="st1" d="M142.7,91.2c0,2.7-0.2,5.4-0.6,8.1l40.3,6.4c0.1-0.8-0.3-1.8-1.3-2.6l-22.9-18.9c-2-1.6-2.5-4.7-1.1-6.9
					l16-25.1c0.7-1.1,0.8-2.1,0.4-2.9l-36.3,18.5C140.7,74.8,142.7,82.7,142.7,91.2z"/>
				<path class="st3" d="M137.1,67.8l36.3-18.5c-0.4-0.8-1.3-1.3-2.5-1.3l-29.7-1.8c-2.5-0.2-4.8-2.4-4.9-4.9l-1.8-29.7
					c-0.1-1.3-0.6-2.1-1.4-2.5l-18.5,36.3C124.2,50.2,132.1,58.1,137.1,67.8z"/>
				<path class="st4" d="M91.2,39.6c8.4,0,16.4,2,23.4,5.6l18.5-36.3c-0.8-0.4-1.8-0.3-2.9,0.4l-25.1,16c-2.1,1.4-5.3,0.9-6.9-1.1
					L79.3,1.3c-0.8-1-1.7-1.4-2.6-1.3l6.4,40.2C85.7,39.9,88.4,39.6,91.2,39.6z"/>
				<path class="st2" d="M99.2,142.1l6.4,40.3c0.8-0.1,1.6-0.8,2.1-2l10.9-27.7c0.9-2.4,3.7-3.8,6.2-3.2l28.8,7.4
					c1.2,0.3,2.2,0.1,2.8-0.5l-28.8-28.8C120.1,135.1,110.2,140.3,99.2,142.1z"/>
				<path class="st0" d="M142.1,99.2c-1.7,11-6.9,20.8-14.4,28.4l28.8,28.8c0.6-0.6,0.8-1.6,0.5-2.8l-7.4-28.8
					c-0.6-2.5,0.8-5.3,3.2-6.2l27.7-10.9c1.2-0.5,1.9-1.2,2-2.1L142.1,99.2z"/>
				<path class="st4" d="M91.2,142.7c-8.4,0-16.4-2-23.4-5.6l-18.5,36.3c0.8,0.4,1.8,0.3,2.9-0.4l25.1-16c2.2-1.4,5.2-0.9,6.9,1.1
					L103,181c0.8,1,1.7,1.4,2.6,1.3l-6.4-40.3C96.6,142.5,93.9,142.7,91.2,142.7z"/>
				<path class="st3" d="M45.3,114.6L8.9,133.1c0.4,0.8,1.3,1.3,2.5,1.4l29.7,1.8c2.6,0.2,4.8,2.4,4.9,4.9l1.8,29.7
					c0.1,1.3,0.6,2.2,1.3,2.5l18.5-36.3C58.1,132.1,50.2,124.2,45.3,114.6z"/>
			</g>
			<g>
				<path class="st4" d="M80.6,100.3c2,0.3,4,0,5.8-0.9l1.4-0.7c4.7-2.4,6.6-8.1,4.2-12.8l-9.2-18.1c-0.6-1-1.5-1.8-2.6-2
					c-0.6-0.1-1.2,0-1.8,0.3c-0.8,0.4-1.3,1.1-1.5,2c-0.2,0.9-0.1,1.8,0.3,2.6L86,88c1,2,0.2,4.4-1.8,5.4c-0.8,0.4-1.6,0.5-2.5,0.4
					c-1.3-0.2-2.4-1-3-2.2l-8.9-17.5c-2.9-5.7-0.7-12.6,4.7-15.4c2.1-1,4.4-1.4,6.7-1c3.7,0.6,6.8,2.9,8.5,6.3l9.2,18.1
					c4.4,8.7,1,19.3-7.7,23.7l-1.4,0.7c-3.3,1.7-7,2.3-10.7,1.7c-5.6-0.9-10.4-4.4-12.9-9.4l-13-25.5L53.2,73
					c-1.7,3.6-3,7.4-3.6,11.6c-3.6,23,12,44.6,35,48.2c23,3.6,44.5-12,48.2-35c3.6-23-12.1-44.5-35-48.2
					C82.2,47.1,67.3,53.5,58.2,65l15.4,30.2C74.9,98,77.5,99.9,80.6,100.3z"/>
			</g>
		</g>
	</g>
</g>
</svg>
